<?xml version="1.0" encoding="iso-8859-1"?>
<!-- Generator: Adobe Illustrator 19.1.0, SVG Export Plug-In . SVG Version: 6.00 Build 0)  -->
<svg version="1.1" id="Capa_1" xmlns="http://www.w3.org/2000/svg" xmlns:xlink="http://www.w3.org/1999/xlink" x="0px" y="0px"
	 viewBox="0 0 325.641 325.641" style="enable-background:new 0 0 325.641 325.641;" xml:space="preserve">
<g>
	<path d="M301.868,111.975c0.501-3.863,0.752-7.507,0.752-11.054c0-49.107-39.956-89.057-89.069-89.057
		c-29.409,0-57.032,14.769-73.536,38.934c-8.284-4.274-17.462-6.51-26.883-6.51c-30.482,0-55.618,23.349-58.458,53.323
		C23.137,103.009,0,130.034,0,162.631c0,36.421,29.634,66.049,66.055,66.049h193.538c36.414,0,66.049-29.628,66.049-66.049
		C325.648,142.824,317.036,124.578,301.868,111.975z M259.593,215.832H66.061c-29.332,0-53.201-23.863-53.201-53.195
		c0-27.777,20.868-50.534,48.548-52.938l5.855-0.771v-5.893c0-25.309,20.579-45.894,45.881-45.894
		c9.081,0,17.873,2.661,25.425,7.699l5.688,3.792l3.432-5.913c13.631-23.439,38.869-38.002,65.875-38.002
		c42.025,0,76.216,34.184,76.216,76.203c0,3.972-0.379,8.136-1.157,12.732l-0.656,3.895l3.175,2.346
		c13.76,10.174,21.652,25.746,21.652,42.745C312.794,191.97,288.931,215.832,259.593,215.832z M93.787,300.949
		c0,7.095-5.739,12.828-12.828,12.828c-7.089,0-12.828-5.739-12.828-12.828s5.739-12.828,12.828-12.828
		C88.048,288.121,93.787,293.854,93.787,300.949z M132.913,250.139c0,4.73-3.837,8.573-8.567,8.573c-4.73,0-8.567-3.843-8.567-8.573
		s3.837-8.561,8.567-8.561C129.077,241.578,132.913,245.402,132.913,250.139z M180.253,298.276c0,7.095-5.739,12.828-12.828,12.828
		c-7.089,0-12.828-5.739-12.828-12.828s5.739-12.828,12.828-12.828C174.514,285.448,180.253,291.181,180.253,298.276z
		 M266.874,298.276c0,7.095-5.739,12.828-12.828,12.828c-7.089,0-12.828-5.739-12.828-12.828s5.739-12.828,12.828-12.828
		C261.135,285.448,266.874,291.181,266.874,298.276z M219.136,250.139c0,4.73-3.83,8.573-8.561,8.573s-8.573-3.843-8.573-8.573
		s3.843-8.561,8.573-8.561S219.136,245.402,219.136,250.139z"/>
</g>
<g>
</g>
<g>
</g>
<g>
</g>
<g>
</g>
<g>
</g>
<g>
</g>
<g>
</g>
<g>
</g>
<g>
</g>
<g>
</g>
<g>
</g>
<g>
</g>
<g>
</g>
<g>
</g>
<g>
</g>
</svg>
